Coordinates
version=1
nRows=22
nColumns=24
inDegrees=yes

Units are S.I. units (second, meters, Newtons, ...)
Angles are in degrees.

endheader
time	pelvis_tilt	pelvis_list	pelvis_rotation	pelvis_tx	pelvis_ty	pelvis_tz	hip_flexion_r	hip_adduction_r	hip_rotation_r	knee_angle_r	ankle_angle_r	subtalar_angle_r	mtp_angle_r	hip_flexion_l	hip_adduction_l	hip_rotation_l	knee_angle_l	ankle_angle_l	subtalar_angle_l	mtp_angle_l	lumbar_extension	lumbar_bending	lumbar_rotation
      1.40700000	     -3.61434403	     -1.58270365	     -6.76499161	      0.93236784	      0.95738407	      0.33443784	    -20.13627934	      0.73611980	      2.95727271	     -5.07874765	     15.38667449	      6.32007691	      8.48252170	     27.95958515	     -3.94475802	     -3.08223059	      6.72803923	      0.95428507	     -3.37564596	      1.99069872	     -9.66332509	      6.89758211	     11.01395185
      1.41116667	     -3.58901717	     -1.36880639	     -6.72962770	      0.93862972	      0.95684355	      0.33383509	    -20.39379171	      0.45009115	      2.81864786	     -5.27449244	     14.97001674	      6.18912473	     13.95317869	     28.00039785	     -3.63805886	     -2.76654214	      6.08881916	      0.59441834	     -3.85223670	      3.04054495	     -9.61455098	      6.59895117	     10.92406499
      1.41533333	     -3.68135203	     -1.17263719	     -6.72306167	      0.94486382	      0.95618080	      0.33321840	    -20.45712168	      0.18588665	      2.67073779	     -5.62528404	     14.69685923	      6.25637145	     14.01048585	     28.16993630	     -3.36878881	     -2.39468541	      5.43154583	      0.13733378	     -4.49720517	      3.04224240	     -9.43607308	      6.31798936	     11.04730019
      1.41950000	     -3.70490605	     -0.93812050	     -6.70310155	      0.95117964	      0.95564250	      0.33258306	    -20.59936361	     -0.12114013	      2.49383903	     -5.96048747	     14.37512227	      6.28766477	     14.12914504	     28.23955170	     -3.04465996	     -2.00203616	      4.82408379	     -0.42735640	     -5.25330640	      3.06626116	     -9.32496623	      5.99228325	     11.03861354
      1.42366667	     -3.75423910	     -0.69374923	     -6.69016983	      0.95751339	      0.95510698	      0.33194516	    -20.69518611	     -0.43604622	      2.32636838	     -6.32902107	     14.03505491	      6.30138553	     14.31608472	     28.34068442	     -2.71385203	     -1.62587614	      4.20515963	     -1.05912920	     -6.04039398	      3.11465688	     -9.19563548	      5.65774130	     11.05389456
      1.42783333	     -3.81701043	     -0.42913189	     -6.67238982	      0.96390004	      0.95460113	      0.33128615	    -20.77402425	     -0.76860042	      2.15377710	     -6.69701645	     13.66826364	      6.31227208	     14.54700904	     28.45779667	     -2.35828465	     -1.29630506	      3.57935930	     -1.76706957	     -6.82065309	      3.16736549	     -9.02972620	      5.30480982	     11.06824772
      1.43200000	     -3.88373994	     -0.15676215	     -6.65881353	      0.97030659	      0.95412353	      0.33062451	    -20.82405428	     -1.10871447	      1.97863088	     -7.11239779	     13.27271743	      6.29962512	     14.83573982	     28.57985037	     -1.99616966	     -0.98340328	      2.96167379	     -2.55781536	     -7.64190520	      3.24137828	     -8.85682043	      4.93447213	     11.08621477
      1.43616667	     -3.93889959	      0.13986291	     -6.63001390	      0.97674980	      0.95369632	      0.32993055	    -20.87093154	     -1.47069136	      1.75550688	     -7.54339837	     12.76131111	      6.19817789	     19.57397864	     28.69430911	     -1.60076421	     -0.69299502	      2.33283647	     -3.37731265	     -8.44169461	      4.57572770	     -8.71194840	      4.54510757	     11.05589041
      1.44033333	     -4.03129617	      0.44134794	     -6.62946861	      0.98321057	      0.95328117	      0.32926428	    -20.85538910	     -1.84136659	      1.58860165	     -8.02037575	     12.30276734	      6.16275581	     19.65613117	     28.85598178	     -1.21730014	     -0.46896419	      1.68136471	     -4.22757242	     -9.23868800	      4.56060192	     -8.51067531	      4.14121521	     11.13076597
      1.44450000	     -4.12281397	      0.76444635	     -6.61928323	      0.98971321	      0.95290952	      0.32858045	    -20.83023324	     -2.22984848	      1.41011204	     -8.51295543	     11.82982518	      6.12723449	     19.81220238	     29.02107311	     -0.80740533	     -0.26970765	      1.01947768	     -5.11534636	    -10.04138203	      4.56079452	     -8.30703550	      3.72183919	     11.15751355
      1.44866667	     -4.21427387	      1.09368387	     -6.60532401	      0.99621740	      0.95257966	      0.32788409	    -20.78042018	     -2.62349504	      1.21952086	     -9.05035149	     11.31870612	      6.07162258	     20.04294356	     29.19511790	     -0.39101137	     -0.11099437	      0.34138097	     -6.00947261	    -10.83372322	      4.56901375	     -8.09740660	      3.29122478	     11.19093948
      1.45283333	     -4.28926707	      1.43734953	     -6.56552642	      1.00273352	      0.95229924	      0.32714381	    -20.73656622	     -3.02489884	      0.98892766	     -9.60677828	     10.75929698	      6.00725813	     20.54324353	     29.36442533	      0.05389037	      0.07411751	     -0.36381995	     -6.84343514	    -11.62178827	      4.61324391	     -7.90671564	      2.82820802	     11.21639347
      1.45700000	     -4.40545347	      1.78767518	     -6.57160245	      1.00927927	      0.95204259	      0.32645980	    -20.60190984	     -3.44362831	      0.81601556	    -10.24370066	     10.16734938	      5.90095507	     21.00440176	     29.57374274	      0.47427218	      0.13267091	     -1.07928988	     -7.67338960	    -12.27894931	      4.63967640	     -7.66647256	      2.38098065	     11.26595137
      1.46116667	     -4.48229936	      2.15453360	     -6.54643191	      1.01585077	      0.95186901	      0.32573688	    -20.52422955	     -3.87364875	      0.61410738	    -10.83169576	      9.46734019	      5.72627853	     26.43844430	     29.77635578	      0.92623873	      0.12312925	     -1.86535287	     -8.43780516	    -12.83445476	      5.05588972	     -7.46898826	      1.90773351	     11.25580202
      1.46533333	     -4.59086071	      2.51067279	     -6.52209271	      1.02239463	      0.95170112	      0.32501795	    -20.37673735	     -4.28471800	      0.45363910	    -11.49871292	      8.81905954	      5.56626038	     26.50597775	     30.02038703	      1.36086218	      0.11611374	     -2.67546023	     -9.15611305	    -13.38740288	      5.03421146	     -7.23746208	      1.44076442	     11.33043303
      1.46950000	     -4.67750790	      2.88460940	     -6.51172643	      1.02895845	      0.95160022	      0.32429551	    -20.22195037	     -4.72496101	      0.28168754	    -12.21501359	      8.13607552	      5.42859271	     26.64907286	     30.24756531	      1.80828053	      0.08760157	     -3.51471669	     -9.78256291	    -13.91547323	      5.00755919	     -7.02911364	      0.95490112	     11.39592553
      1.47366667	     -4.76125421	      3.25870085	     -6.48360528	      1.03551829	      0.95154097	      0.32354343	    -20.05232127	     -5.16051132	      0.10301223	    -12.96238789	      7.41151070	      5.28925533	     26.93371487	     30.47353144	      2.26498007	      0.09500282	     -4.37123024	    -10.31085779	    -14.47985141	      4.96557839	     -6.82171238	      0.46571945	     11.44356001
      1.47783333	     -4.80119729	      3.64070510	     -6.44511901	      1.04209949	      0.95158263	      0.32280501	    -19.92987367	     -5.60059513	     -0.06769310	    -13.69799886	      6.61497571	      5.08641194	     27.03173363	     30.68568197	      2.72832701	     -0.02500989	     -5.30459836	    -10.67309021	    -14.72728376	      4.94269827	     -6.67030035	     -0.03595961	     11.42628495
      1.48200000	     -4.91497555	      3.99660760	     -6.42045296	      1.04862648	      0.95156203	      0.32202484	    -19.65855305	     -6.01937008	     -0.22591734	    -14.56818703	      5.86007816	      4.91298270	     27.38357007	     30.96597102	      3.15993683	     -0.03717533	     -6.22692125	    -11.13553941	    -15.22439054	      4.87564018	     -6.42974960	     -0.49256766	     11.56251455
      1.48616667	     -4.91615401	      4.39083154	     -6.39296102	      1.05520411	      0.95171086	      0.32123641	    -19.51309514	     -6.49244009	     -0.42414477	    -15.40180860	      4.99619702	      4.67723862	     32.93421583	     31.13306923	      3.64499773	     -0.07874211	     -7.18257735	    -11.33161982	    -15.60808723	      3.79678641	     -6.32582991	     -1.00829385	     11.58373805
      1.49033333	     -4.94318428	      4.74756279	     -6.35033128	      1.06175074	      0.95187561	      0.32045630	    -19.32798346	     -6.91128525	     -0.56530743	    -16.25957880	      4.08570730	      4.47078698	     32.95231083	     31.34024781	      4.09042543	     -0.15001673	     -8.17615150	    -11.43688825	    -15.83789227	      3.78779780	     -6.19543716	     -1.47406243	     11.59404641
      1.49450000	     -5.00084921	      5.08053714	     -6.31345678	      1.06822997	      0.95201484	      0.31965073	    -19.04892483	     -7.30968990	     -0.69683634	    -17.23392790	      3.21631415	      4.24576361	     33.04971872	     31.59250915	      4.51040178	     -0.18728218	     -9.20957648	    -11.50949671	    -16.10594215	      3.74800689	     -6.02396922	     -1.90743465	     11.70985772
